<?xml version="1.0" encoding="UTF-8" standalone="no"?>
<!DOCTYPE svg PUBLIC "-//W3C//DTD SVG 1.1//EN"
 "http://www.w3.org/Graphics/SVG/1.1/DTD/svg11.dtd">
<!-- Generated by graphviz version 2.40.1 (20161225.0304)
 -->
<!-- Title: %3 Pages: 1 -->
<svg width="884pt" height="548pt"
 viewBox="0.00 0.00 884.25 548.00" xmlns="http://www.w3.org/2000/svg" xmlns:xlink="http://www.w3.org/1999/xlink">
<g id="graph0" class="graph" transform="scale(1 1) rotate(0) translate(4 544)">
<title>%3</title>
<polygon fill="#ffffff" stroke="transparent" points="-4,4 -4,-544 880.2459,-544 880.2459,4 -4,4"/>
<!-- [root] aws_iam_role.iam_for_lambda -->
<g id="node1" class="node">
<title>[root] aws_iam_role.iam_for_lambda</title>
<polygon fill="none" stroke="#000000" points="533.6527,-252 343.5403,-252 343.5403,-216 533.6527,-216 533.6527,-252"/>
<text text-anchor="middle" x="438.5965" y="-229.8" font-family="Times,serif" font-size="14.00" fill="#000000">aws_iam_role.iam_for_lambda</text>
</g>
<!-- [root] data.aws_iam_policy_document.policy -->
<g id="node4" class="node">
<title>[root] data.aws_iam_policy_document.policy</title>
<polygon fill="none" stroke="#000000" points="534.373,-180 298.82,-180 298.82,-144 534.373,-144 534.373,-180"/>
<text text-anchor="middle" x="416.5965" y="-157.8" font-family="Times,serif" font-size="14.00" fill="#000000">data.aws_iam_policy_document.policy</text>
</g>
<!-- [root] aws_iam_role.iam_for_lambda&#45;&gt;[root] data.aws_iam_policy_document.policy -->
<g id="edge1" class="edge">
<title>[root] aws_iam_role.iam_for_lambda&#45;&gt;[root] data.aws_iam_policy_document.policy</title>
<path fill="none" stroke="#000000" d="M433.045,-215.8314C430.6662,-208.0463 427.8327,-198.7729 425.1932,-190.1347"/>
<polygon fill="#000000" stroke="#000000" points="428.4923,-188.954 422.2228,-180.4133 421.7978,-190.9996 428.4923,-188.954"/>
</g>
<!-- [root] aws_lambda_function.lambda -->
<g id="node2" class="node">
<title>[root] aws_lambda_function.lambda</title>
<polygon fill="none" stroke="#000000" points="574.9386,-324 390.2544,-324 390.2544,-288 574.9386,-288 574.9386,-324"/>
<text text-anchor="middle" x="482.5965" y="-301.8" font-family="Times,serif" font-size="14.00" fill="#000000">aws_lambda_function.lambda</text>
</g>
<!-- [root] aws_lambda_function.lambda&#45;&gt;[root] aws_iam_role.iam_for_lambda -->
<g id="edge2" class="edge">
<title>[root] aws_lambda_function.lambda&#45;&gt;[root] aws_iam_role.iam_for_lambda</title>
<path fill="none" stroke="#000000" d="M471.4935,-287.8314C466.5291,-279.7079 460.5743,-269.9637 455.1037,-261.0118"/>
<polygon fill="#000000" stroke="#000000" points="458.0501,-259.121 449.8491,-252.4133 452.0771,-262.7712 458.0501,-259.121"/>
</g>
<!-- [root] data.archive_file.zip -->
<g id="node3" class="node">
<title>[root] data.archive_file.zip</title>
<polygon fill="none" stroke="#000000" points="702.1014,-252 573.0917,-252 573.0917,-216 702.1014,-216 702.1014,-252"/>
<text text-anchor="middle" x="637.5965" y="-229.8" font-family="Times,serif" font-size="14.00" fill="#000000">data.archive_file.zip</text>
</g>
<!-- [root] aws_lambda_function.lambda&#45;&gt;[root] data.archive_file.zip -->
<g id="edge3" class="edge">
<title>[root] aws_lambda_function.lambda&#45;&gt;[root] data.archive_file.zip</title>
<path fill="none" stroke="#000000" d="M521.7096,-287.8314C542.3478,-278.2446 567.8449,-266.4008 589.6638,-256.2655"/>
<polygon fill="#000000" stroke="#000000" points="591.1699,-259.4251 598.7647,-252.038 588.2209,-253.0766 591.1699,-259.4251"/>
</g>
<!-- [root] provider.archive -->
<g id="node5" class="node">
<title>[root] provider.archive</title>
<polygon fill="none" stroke="#000000" points="648.5965,-180 552.7898,-162 648.5965,-144 744.4033,-162 648.5965,-180"/>
<text text-anchor="middle" x="648.5965" y="-157.8" font-family="Times,serif" font-size="14.00" fill="#000000">provider.archive</text>
</g>
<!-- [root] data.archive_file.zip&#45;&gt;[root] provider.archive -->
<g id="edge4" class="edge">
<title>[root] data.archive_file.zip&#45;&gt;[root] provider.archive</title>
<path fill="none" stroke="#000000" d="M640.3723,-215.8314C641.5668,-208.0125 642.9907,-198.6923 644.3154,-190.0221"/>
<polygon fill="#000000" stroke="#000000" points="647.8093,-190.3273 645.8597,-179.9134 640.8895,-189.2701 647.8093,-190.3273"/>
</g>
<!-- [root] provider.aws -->
<g id="node6" class="node">
<title>[root] provider.aws</title>
<polygon fill="none" stroke="#000000" points="416.5965,-108 337.9882,-90 416.5965,-72 495.2048,-90 416.5965,-108"/>
<text text-anchor="middle" x="416.5965" y="-85.8" font-family="Times,serif" font-size="14.00" fill="#000000">provider.aws</text>
</g>
<!-- [root] data.aws_iam_policy_document.policy&#45;&gt;[root] provider.aws -->
<g id="edge5" class="edge">
<title>[root] data.aws_iam_policy_document.policy&#45;&gt;[root] provider.aws</title>
<path fill="none" stroke="#000000" d="M416.5965,-143.8314C416.5965,-136.131 416.5965,-126.9743 416.5965,-118.4166"/>
<polygon fill="#000000" stroke="#000000" points="420.0966,-118.4132 416.5965,-108.4133 413.0966,-118.4133 420.0966,-118.4132"/>
</g>
<!-- [root] var.aws_region -->
<g id="node11" class="node">
<title>[root] var.aws_region</title>
<ellipse fill="none" stroke="#000000" cx="163.5965" cy="-18" rx="86.4791" ry="18"/>
<text text-anchor="middle" x="163.5965" y="-13.8" font-family="Times,serif" font-size="14.00" fill="#000000">[root] var.aws_region</text>
</g>
<!-- [root] provider.aws&#45;&gt;[root] var.aws_region -->
<g id="edge10" class="edge">
<title>[root] provider.aws&#45;&gt;[root] var.aws_region</title>
<path fill="none" stroke="#000000" d="M381.4179,-79.9887C340.8969,-68.457 273.6074,-49.3074 224.523,-35.3388"/>
<polygon fill="#000000" stroke="#000000" points="225.2282,-31.9006 214.6521,-32.5297 223.3122,-38.6332 225.2282,-31.9006"/>
</g>
<!-- [root] var.tf_sensitive_aws_access_key -->
<g id="node12" class="node">
<title>[root] var.tf_sensitive_aws_access_key</title>
<ellipse fill="none" stroke="#000000" cx="416.5965" cy="-18" rx="148.7284" ry="18"/>
<text text-anchor="middle" x="416.5965" y="-13.8" font-family="Times,serif" font-size="14.00" fill="#000000">[root] var.tf_sensitive_aws_access_key</text>
</g>
<!-- [root] provider.aws&#45;&gt;[root] var.tf_sensitive_aws_access_key -->
<g id="edge11" class="edge">
<title>[root] provider.aws&#45;&gt;[root] var.tf_sensitive_aws_access_key</title>
<path fill="none" stroke="#000000" d="M416.5965,-71.8314C416.5965,-64.131 416.5965,-54.9743 416.5965,-46.4166"/>
<polygon fill="#000000" stroke="#000000" points="420.0966,-46.4132 416.5965,-36.4133 413.0966,-46.4133 420.0966,-46.4132"/>
</g>
<!-- [root] var.tf_sensitive_aws_secret_key -->
<g id="node13" class="node">
<title>[root] var.tf_sensitive_aws_secret_key</title>
<ellipse fill="none" stroke="#000000" cx="729.5965" cy="-18" rx="146.799" ry="18"/>
<text text-anchor="middle" x="729.5965" y="-13.8" font-family="Times,serif" font-size="14.00" fill="#000000">[root] var.tf_sensitive_aws_secret_key</text>
</g>
<!-- [root] provider.aws&#45;&gt;[root] var.tf_sensitive_aws_secret_key -->
<g id="edge12" class="edge">
<title>[root] provider.aws&#45;&gt;[root] var.tf_sensitive_aws_secret_key</title>
<path fill="none" stroke="#000000" d="M455.9212,-80.9541C504.5472,-69.7685 588.4864,-50.4598 650.617,-36.1678"/>
<polygon fill="#000000" stroke="#000000" points="651.4317,-39.5719 660.3926,-33.9191 649.8624,-32.7501 651.4317,-39.5719"/>
</g>
<!-- [root] meta.count&#45;boundary (count boundary fixup) -->
<g id="node7" class="node">
<title>[root] meta.count&#45;boundary (count boundary fixup)</title>
<ellipse fill="none" stroke="#000000" cx="191.5965" cy="-450" rx="191.6931" ry="18"/>
<text text-anchor="middle" x="191.5965" y="-445.8" font-family="Times,serif" font-size="14.00" fill="#000000">[root] meta.count&#45;boundary (count boundary fixup)</text>
</g>
<!-- [root] output.lambda -->
<g id="node8" class="node">
<title>[root] output.lambda</title>
<ellipse fill="none" stroke="#000000" cx="282.5965" cy="-378" rx="83.0891" ry="18"/>
<text text-anchor="middle" x="282.5965" y="-373.8" font-family="Times,serif" font-size="14.00" fill="#000000">[root] output.lambda</text>
</g>
<!-- [root] meta.count&#45;boundary (count boundary fixup)&#45;&gt;[root] output.lambda -->
<g id="edge6" class="edge">
<title>[root] meta.count&#45;boundary (count boundary fixup)&#45;&gt;[root] output.lambda</title>
<path fill="none" stroke="#000000" d="M214.5597,-431.8314C226.1349,-422.6729 240.3137,-411.4545 252.726,-401.6338"/>
<polygon fill="#000000" stroke="#000000" points="254.9119,-404.3674 260.5825,-395.4177 250.5685,-398.8778 254.9119,-404.3674"/>
</g>
<!-- [root] output.lambda&#45;&gt;[root] aws_lambda_function.lambda -->
<g id="edge7" class="edge">
<title>[root] output.lambda&#45;&gt;[root] aws_lambda_function.lambda</title>
<path fill="none" stroke="#000000" d="M325.5015,-362.5542C353.8984,-352.3313 391.5329,-338.7829 422.8469,-327.5099"/>
<polygon fill="#000000" stroke="#000000" points="424.1216,-330.7709 432.3449,-324.0906 421.7505,-324.1847 424.1216,-330.7709"/>
</g>
<!-- [root] provider.archive (close) -->
<g id="node9" class="node">
<title>[root] provider.archive (close)</title>
<ellipse fill="none" stroke="#000000" cx="637.5965" cy="-378" rx="116.3628" ry="18"/>
<text text-anchor="middle" x="637.5965" y="-373.8" font-family="Times,serif" font-size="14.00" fill="#000000">[root] provider.archive (close)</text>
</g>
<!-- [root] provider.archive (close)&#45;&gt;[root] data.archive_file.zip -->
<g id="edge8" class="edge">
<title>[root] provider.archive (close)&#45;&gt;[root] data.archive_file.zip</title>
<path fill="none" stroke="#000000" d="M637.5965,-359.7623C637.5965,-335.201 637.5965,-291.2474 637.5965,-262.3541"/>
<polygon fill="#000000" stroke="#000000" points="641.0966,-262.0896 637.5965,-252.0896 634.0966,-262.0897 641.0966,-262.0896"/>
</g>
<!-- [root] provider.aws (close) -->
<g id="node10" class="node">
<title>[root] provider.aws (close)</title>
<ellipse fill="none" stroke="#000000" cx="505.5965" cy="-450" rx="104.3276" ry="18"/>
<text text-anchor="middle" x="505.5965" y="-445.8" font-family="Times,serif" font-size="14.00" fill="#000000">[root] provider.aws (close)</text>
</g>
<!-- [root] provider.aws (close)&#45;&gt;[root] aws_lambda_function.lambda -->
<g id="edge9" class="edge">
<title>[root] provider.aws (close)&#45;&gt;[root] aws_lambda_function.lambda</title>
<path fill="none" stroke="#000000" d="M502.6835,-431.7623C498.7433,-407.0928 491.6783,-362.8598 487.0644,-333.9731"/>
<polygon fill="#000000" stroke="#000000" points="490.5193,-333.4124 485.4858,-324.0896 483.6069,-334.5165 490.5193,-333.4124"/>
</g>
<!-- [root] root -->
<g id="node14" class="node">
<title>[root] root</title>
<ellipse fill="none" stroke="#000000" cx="505.5965" cy="-522" rx="46.8976" ry="18"/>
<text text-anchor="middle" x="505.5965" y="-517.8" font-family="Times,serif" font-size="14.00" fill="#000000">[root] root</text>
</g>
<!-- [root] root&#45;&gt;[root] meta.count&#45;boundary (count boundary fixup) -->
<g id="edge13" class="edge">
<title>[root] root&#45;&gt;[root] meta.count&#45;boundary (count boundary fixup)</title>
<path fill="none" stroke="#000000" d="M465.1893,-512.7347C417.2555,-501.7435 336.1036,-483.1354 274.5975,-469.0321"/>
<polygon fill="#000000" stroke="#000000" points="275.0464,-465.5442 264.5171,-466.7206 273.4819,-472.3672 275.0464,-465.5442"/>
</g>
<!-- [root] root&#45;&gt;[root] provider.archive (close) -->
<g id="edge14" class="edge">
<title>[root] root&#45;&gt;[root] provider.archive (close)</title>
<path fill="none" stroke="#000000" d="M545.5783,-512.5874C570.242,-504.7239 600.5158,-490.9852 618.5965,-468 632.342,-450.526 636.7564,-425.4406 637.9234,-406.1901"/>
<polygon fill="#000000" stroke="#000000" points="641.4217,-406.2983 638.2764,-396.1811 634.4261,-406.0515 641.4217,-406.2983"/>
</g>
<!-- [root] root&#45;&gt;[root] provider.aws (close) -->
<g id="edge15" class="edge">
<title>[root] root&#45;&gt;[root] provider.aws (close)</title>
<path fill="none" stroke="#000000" d="M505.5965,-503.8314C505.5965,-496.131 505.5965,-486.9743 505.5965,-478.4166"/>
<polygon fill="#000000" stroke="#000000" points="509.0966,-478.4132 505.5965,-468.4133 502.0966,-478.4133 509.0966,-478.4132"/>
</g>
</g>
</svg>
